<?xml version="1.0" standalone="no"?>
<!DOCTYPE svg PUBLIC "-//W3C//DTD SVG 20010904//EN"
 "http://www.w3.org/TR/2001/REC-SVG-20010904/DTD/svg10.dtd">
<svg version="1.0" xmlns="http://www.w3.org/2000/svg"
 width="18.000000pt" height="18.000000pt" viewBox="0 0 338.000000 338.000000"
 preserveAspectRatio="xMidYMid meet">

<g transform="translate(0.000000,338.000000) scale(0.100000,-0.100000)"
fill="#000000" stroke="none">
<path d="M1440 3180 c-268 -48 -520 -176 -721 -367 -183 -175 -323 -404 -385
-633 -11 -43 -29 -78 -52 -104 -75 -84 -114 -225 -95 -346 13 -80 50 -167 96
-224 22 -27 44 -76 65 -141 156 -497 570 -861 1092 -961 130 -24 370 -24 500
0 440 85 805 356 1006 751 29 56 67 149 85 206 22 69 44 118 66 145 133 164
133 412 0 569 -21 25 -40 64 -51 105 -120 444 -491 821 -941 959 -206 63 -453
78 -665 41z m208 -372 l-3 -303 -100 3 c-94 3 -222 15 -307 28 -48 7 -48 14 2
133 82 198 207 359 320 414 98 47 91 70 88 -275z m182 269 c103 -49 231 -217
310 -408 50 -119 50 -126 3 -133 -86 -13 -214 -25 -308 -28 l-100 -3 -3 304
-2 303 27 -6 c16 -4 48 -17 73 -29z m-472 -44 c-83 -90 -168 -240 -223 -395
-19 -54 -33 -78 -44 -78 -51 0 -391 95 -391 109 0 14 127 129 210 191 97 71
237 144 360 186 133 46 143 45 88 -13z m744 16 c121 -40 271 -118 367 -189 84
-62 211 -177 211 -191 0 -14 -340 -109 -391 -109 -11 0 -25 24 -44 78 -55 155
-140 305 -223 395 -54 56 -46 58 80 16z m-1322 -502 c63 -19 153 -43 200 -53
47 -9 88 -20 92 -23 3 -3 -5 -58 -18 -121 -13 -63 -24 -116 -24 -117 0 -1
-116 -3 -257 -5 -208 -3 -266 -7 -300 -19 -24 -9 -43 -15 -43 -13 0 2 11 32
24 66 54 144 168 333 195 325 9 -3 68 -20 131 -40z m2013 -26 c54 -81 101
-172 133 -259 13 -34 24 -64 24 -66 0 -2 -27 5 -61 15 -53 16 -93 19 -300 19
-131 0 -239 1 -239 3 0 1 -11 54 -24 117 -13 63 -21 118 -18 121 4 3 53 15
109 28 56 12 148 37 205 55 57 19 108 34 114 35 6 1 32 -30 57 -68z m-1289
-99 l141 -7 0 -90 0 -90 -262 -3 c-145 -1 -263 0 -263 3 0 11 42 210 46 216 1
3 47 -1 100 -8 53 -7 160 -16 238 -21z m735 -79 c12 -56 21 -104 21 -108 0 -3
-118 -4 -262 -3 l-263 3 0 90 0 90 135 7 c74 4 180 14 235 21 55 7 103 11 107
8 3 -4 16 -52 27 -108z m676 -233 c67 -33 131 -99 163 -168 23 -49 27 -70 27
-152 0 -76 -4 -104 -22 -142 -32 -71 -103 -141 -176 -174 l-62 -29 -1134 -3
c-1010 -2 -1141 -1 -1189 13 -69 20 -117 51 -166 105 -53 58 -78 121 -84 206
-10 163 77 302 226 356 44 16 133 17 1207 15 l1160 -2 50 -25z m-2430 -737
c39 -13 104 -17 298 -21 243 -4 247 -4 252 -26 21 -92 44 -210 42 -211 -1 -1
-47 -12 -102 -25 -55 -12 -154 -38 -219 -58 l-119 -36 -22 28 c-42 52 -113
181 -149 268 -34 82 -39 98 -33 98 1 0 25 -8 52 -17z m2465 11 c0 -3 -16 -44
-36 -92 -37 -90 -91 -188 -142 -258 l-30 -41 -83 28 c-46 16 -145 43 -219 60
-74 18 -136 33 -137 34 -2 1 22 121 42 212 5 21 9 21 252 25 190 4 259 8 293
20 52 18 60 20 60 12z m-1300 -122 l0 -89 -167 -12 c-93 -6 -199 -16 -237 -22
-37 -6 -72 -7 -76 -2 -7 6 -50 188 -50 208 0 3 119 5 265 5 l265 0 0 -88z
m610 83 c0 -18 -43 -201 -48 -207 -4 -4 -61 -1 -127 7 -66 7 -173 16 -237 20
l-118 7 0 89 0 89 265 0 c146 0 265 -2 265 -5z m-610 -565 l0 -300 -22 0 c-62
0 -197 105 -268 209 -63 94 -160 302 -160 345 0 10 30 17 113 25 61 6 126 13
142 15 17 1 67 4 113 5 l82 1 0 -300z m428 279 c73 -8 102 -16 102 -25 0 -46
-100 -258 -166 -350 -74 -104 -187 -194 -259 -206 -20 -3 -20 3 -23 301 l-2
304 122 -6 c68 -4 169 -12 226 -18z m-944 -112 c45 -128 121 -267 196 -361 38
-47 67 -86 65 -86 -2 0 -51 15 -108 34 -125 41 -256 106 -356 176 -89 63 -235
200 -224 211 15 14 320 98 393 108 3 1 18 -36 34 -82z m1291 48 c116 -27 235
-63 248 -75 11 -10 -136 -147 -224 -210 -92 -64 -217 -128 -329 -167 -151 -53
-149 -53 -87 20 88 104 186 287 227 424 11 35 17 42 34 38 12 -2 71 -16 131
-30z"/>
<path d="M610 1994 c0 -14 113 -420 119 -426 3 -3 31 -8 61 -9 l54 -3 36 126
c19 70 38 129 41 132 3 4 21 -49 39 -116 18 -68 35 -126 39 -130 3 -3 31 -8
61 -9 l55 -3 61 222 61 223 -61 -3 -60 -3 -30 -142 c-17 -79 -33 -143 -36
-143 -3 0 -18 48 -33 108 -51 201 -41 182 -96 182 l-49 0 -16 -67 c-40 -161
-59 -224 -66 -216 -4 4 -20 70 -35 146 l-28 137 -59 0 c-32 0 -58 -3 -58 -6z"/>
<path d="M1424 1781 l61 -219 57 -4 58 -3 15 50 c8 28 24 87 36 133 12 45 25
82 28 82 3 0 22 -58 40 -129 l35 -129 58 -4 c57 -3 58 -2 68 27 14 46 110 401
110 409 0 3 -26 6 -58 6 l-58 0 -28 -137 c-16 -76 -32 -142 -36 -146 -4 -4
-24 57 -45 138 l-38 145 -48 0 c-46 0 -48 -2 -57 -32 -5 -18 -22 -84 -38 -145
-15 -62 -31 -113 -34 -113 -3 0 -19 64 -36 143 l-30 142 -60 3 -61 3 61 -220z"/>
<path d="M2123 1987 c6 -16 117 -417 117 -423 0 -2 27 -4 59 -4 48 0 61 3 65
18 3 9 19 66 36 126 16 60 32 111 34 114 4 4 25 -62 62 -195 l17 -63 58 0 58
0 15 53 c8 28 33 120 56 202 22 83 43 158 46 168 5 15 -2 17 -54 17 l-60 0
-17 -77 c-41 -191 -47 -214 -54 -206 -4 4 -23 70 -42 146 l-34 138 -49 -3 -50
-3 -36 -137 c-19 -75 -38 -139 -41 -142 -3 -4 -18 51 -33 121 -15 71 -30 136
-32 146 -4 14 -17 17 -66 17 -46 0 -59 -3 -55 -13z"/>
</g>
</svg>
